<?xml version="1.0" encoding="UTF-8" standalone="no"?>
<svg width="22px" height="44px" viewBox="0 0 22 44" version="1.1" xmlns="http://www.w3.org/2000/svg" xmlns:xlink="http://www.w3.org/1999/xlink">
    <!-- Generator: Sketch 39.1 (31720) - http://www.bohemiancoding.com/sketch -->
    <title>btn-icon-call</title>
    <desc>Created with Sketch.</desc>
    <defs></defs>
    <g id="RX-Landing---v3" stroke="none" stroke-width="1" fill="none" fill-rule="evenodd">
        <g id="btn-icon-call">
            <path d="M4.4,9.53333333 C6.11111111,12.9555556 9.04444444,15.7666667 12.4666667,17.6 L15.1555556,14.9111111 C15.5222222,14.5444444 16.0111111,14.4222222 16.3777778,14.6666667 C17.7222222,15.1555556 19.1888889,15.4 20.7777778,15.4 C21.5111111,15.4 22,15.8888889 22,16.6222222 L22,20.7777778 C22,21.5111111 21.5111111,22 20.7777778,22 C9.28888889,22 0,12.7111111 0,1.22222222 C0,0.488888889 0.488888889,0 1.22222222,0 L5.5,0 C6.23333333,0 6.72222222,0.488888889 6.72222222,1.22222222 C6.72222222,2.68888889 6.96666667,4.15555556 7.45555556,5.62222222 C7.57777778,5.98888889 7.45555556,6.47777778 7.21111111,6.84444444 L4.4,9.53333333 L4.4,9.53333333 Z" fill="#222222"></path>
            <path d="M4.4,31.5333333 C6.11111111,34.9555556 9.04444444,37.7666667 12.4666667,39.6 L15.1555556,36.9111111 C15.5222222,36.5444444 16.0111111,36.4222222 16.3777778,36.6666667 C17.7222222,37.1555556 19.1888889,37.4 20.7777778,37.4 C21.5111111,37.4 22,37.8888889 22,38.6222222 L22,42.7777778 C22,43.5111111 21.5111111,44 20.7777778,44 C9.28888889,44 0,34.7111111 0,23.2222222 C0,22.4888889 0.488888889,22 1.22222222,22 L5.5,22 C6.23333333,22 6.72222222,22.4888889 6.72222222,23.2222222 C6.72222222,24.6888889 6.96666667,26.1555556 7.45555556,27.6222222 C7.57777778,27.9888889 7.45555556,28.4777778 7.21111111,28.8444444 L4.4,31.5333333 L4.4,31.5333333 Z" id="btn-icon-call-copy" fill="#FFFFFF"></path>
        </g>
    </g>
</svg>