<?xml version="1.0" encoding="UTF-8" standalone="no"?>
<svg width="22px" height="44px" viewBox="0 0 22 44" version="1.1" xmlns="http://www.w3.org/2000/svg" xmlns:xlink="http://www.w3.org/1999/xlink">
    <!-- Generator: Sketch 39.1 (31720) - http://www.bohemiancoding.com/sketch -->
    <title>btn-icon-chat</title>
    <desc>Created with Sketch.</desc>
    <defs></defs>
    <g id="RX-Landing---v3" stroke="none" stroke-width="1" fill="none" fill-rule="evenodd">
        <g id="btn-icon-chat">
            <path d="M20.8958333,4.33333333 L18.6875,4.33333333 L18.6875,14.2708333 L4.33333333,14.2708333 L4.33333333,16.4791667 C4.33333333,17.1416667 4.775,17.5833333 5.4375,17.5833333 L17.5833333,17.5833333 L22,22 L22,5.4375 C22,4.775 21.5583333,4.33333333 20.8958333,4.33333333 L20.8958333,4.33333333 Z M16.6666667,11.1111111 L16.6666667,1.11111111 C16.6666667,0.444444444 16.2222222,0 15.5555556,0 L1.11111111,0 C0.444444444,0 0,0.444444444 0,1.11111111 L0,16.6666667 L4.44444444,12.2222222 L15.5555556,12.2222222 C16.2222222,12.2222222 16.6666667,11.7777778 16.6666667,11.1111111 L16.6666667,11.1111111 Z" fill="#222222"></path>
            <path d="M20.8958333,26.3333333 L18.6875,26.3333333 L18.6875,36.2708333 L4.33333333,36.2708333 L4.33333333,38.4791667 C4.33333333,39.1416667 4.775,39.5833333 5.4375,39.5833333 L17.5833333,39.5833333 L22,44 L22,27.4375 C22,26.775 21.5583333,26.3333333 20.8958333,26.3333333 L20.8958333,26.3333333 Z M16.6666667,33.1111111 L16.6666667,23.1111111 C16.6666667,22.4444444 16.2222222,22 15.5555556,22 L1.11111111,22 C0.444444444,22 0,22.4444444 0,23.1111111 L0,38.6666667 L4.44444444,34.2222222 L15.5555556,34.2222222 C16.2222222,34.2222222 16.6666667,33.7777778 16.6666667,33.1111111 L16.6666667,33.1111111 Z" id="btn-icon-chat-copy" fill="#FFFFFF"></path>
        </g>
    </g>
</svg>