<?xml version="1.0" encoding="utf-8"?>
<!-- Generator: Adobe Illustrator 20.1.0, SVG Export Plug-In . SVG Version: 6.00 Build 0)  -->
<svg version="1.1" id="Layer_1" xmlns="http://www.w3.org/2000/svg" xmlns:xlink="http://www.w3.org/1999/xlink" x="0px" y="0px"
	 viewBox="0 0 101 75" style="enable-background:new 0 0 101 75;" xml:space="preserve">
<style type="text/css">
	.st0{fill:url(#SVGID_1_);}
	.st1{fill:#FFFFFF;}
</style>
<g id="RX-Landing---v3">
	<g id="rx-mobile" transform="translate(-34.000000, -5590.000000)">
		<g id="locator" transform="translate(0.000000, 5520.000000)">
			<g id="copy" transform="translate(15.000000, 70.000000)">
				<g id="dealer-marker" transform="translate(19.000000, 0.000000)">
					<linearGradient id="SVGID_1_" gradientUnits="userSpaceOnUse" x1="50.5" y1="0" x2="50.5" y2="75">
						<stop  offset="0" style="stop-color:#FF000C"/>
						<stop  offset="1" style="stop-color:#C10004"/>
					</linearGradient>
					<path class="st0" d="M97,0H4C1.8,0,0,1.8,0,4v51.9c0,2.2,1.8,4,4,4h34.5l12,15.1l12-15.1H97c2.2,0,4-1.8,4-4V4
						C101,1.8,99.2,0,97,0z"/>
					<path id="Imported-Layers" class="st1" d="M50.5,18C32.2,18,17,23.2,17,30s15.2,12,33.5,12S84,36.8,84,30S68.8,18,50.5,18
						 M50.6,39.4c-10.7,0-20.4-4.1-20.4-9.5c0-5.5,9.7-9.5,20.4-9.5S71,24.5,71,29.9C71,35.4,61.3,39.4,50.6,39.4"/>
				</g>
			</g>
		</g>
	</g>
</g>
</svg>
