<?xml version="1.0" encoding="utf-8"?>
<!-- Generator: Adobe Illustrator 19.1.0, SVG Export Plug-In . SVG Version: 6.00 Build 0)  -->
<svg version="1.1" id="Layer_1" xmlns="http://www.w3.org/2000/svg" xmlns:xlink="http://www.w3.org/1999/xlink" x="0px" y="0px"
	 viewBox="482.2 298.2 160.2 70.1" style="enable-background:new 482.2 298.2 160.2 70.1;" xml:space="preserve">
<style type="text/css">
	.st0{fill:none;stroke:#000000;stroke-width:0.5949;stroke-miterlimit:10;}
	.st1{fill:none;stroke:#FFFFFF;stroke-width:0.5;stroke-miterlimit:10;}
	.st2{fill:#C2C2C2;}
	.st3{fill:none;stroke:#FFFFFF;stroke-width:0.7065;stroke-miterlimit:10;}
	.st4{fill:none;stroke:#FFFFFF;stroke-width:0.5771;stroke-miterlimit:10;}
</style>
<path class="st2" d="M619.8,331.7c0-0.1,0-0.2-0.1-0.3c-0.6-1.1-14.7-27.2-56.8-27.2c-32.9,0-53,25.2-54.3,26.8c0,0,0,0,0,0
	c0,0,0,0,0,0.1c-0.1,0.1-0.1,0.2-0.1,0.3c-0.1,0.2-0.2,0.3-0.2,0.5c0,0.1,0,0.3,0,0.4c0,0.2,0,0.3,0,0.5c0,0.2,0.1,0.3,0.1,0.5
	c0,0.1,0,0.2,0.1,0.3c0.6,1.1,14.7,27.2,56.8,27.2c32.9,0,53-25.2,54.3-26.8c0,0,0,0,0,0c0,0,0,0,0-0.1c0.1-0.1,0.1-0.2,0.1-0.3
	c0.1-0.2,0.2-0.3,0.2-0.5c0-0.1,0-0.3,0-0.4c0-0.2,0-0.3,0-0.5C620,332,619.9,331.8,619.8,331.7z M564,358.2
	c-14.2,0-25.8-11.6-25.8-25.8c0-14.2,11.6-25.8,25.8-25.8c14.2,0,25.8,11.6,25.8,25.8C589.8,346.6,578.3,358.2,564,358.2z"/>
<path class="st2" d="M564,316.5c-8.8,0-15.9,7.1-15.9,15.9c0,8.8,7.1,15.9,15.9,15.9c8.7,0,15.9-7.1,15.9-15.9
	C579.9,323.6,572.8,316.5,564,316.5z M570.7,334.8h-4.6v4.6H562v-4.6h-4.6v-4.1h4.6v-4.6h4.1v4.6h4.6V334.8z"/>
</svg>
