<?xml version="1.0" encoding="utf-8"?>
<!-- Generator: Adobe Illustrator 19.1.0, SVG Export Plug-In . SVG Version: 6.00 Build 0)  -->
<svg version="1.1" id="Layer_1" xmlns="http://www.w3.org/2000/svg" xmlns:xlink="http://www.w3.org/1999/xlink" x="0px" y="0px"
	 viewBox="482.2 298.2 160.2 70.1" style="enable-background:new 482.2 298.2 160.2 70.1;" xml:space="preserve">
<style type="text/css">
	.st0{fill:none;stroke:#000000;stroke-width:0.5949;stroke-miterlimit:10;}
	.st1{fill:none;stroke:#FFFFFF;stroke-width:0.5;stroke-miterlimit:10;}
	.st2{fill:#C2C2C2;}
	.st3{fill:none;stroke:#FFFFFF;stroke-width:0.7065;stroke-miterlimit:10;}
	.st4{fill:none;stroke:#FFFFFF;stroke-width:0.5771;stroke-miterlimit:10;}
</style>
<path class="st2" d="M638.7,319.5c-0.1-0.8-0.5-1.4-1.3-1.6c-0.6-0.1-1.2-0.4-1.8-0.5c-9.7-2-19.5-2.9-29.4-3.1
	c-10.8-0.3-21.5,0.8-32.1,2.7c-7.7,1.4-15.4,1.4-23,0c-10.4-1.9-20.9-3-29.5-2.8c-9.9,0.2-17.9,0.8-25.8,2.1c-2.4,0.4-4.9,1-7.3,1.5
	c-1,0.2-1.6,0.8-1.7,1.9c-0.3,3.9-0.4,7.7,0,11.6c0.2,1.6,0.4,1.8,2,2.1c1.8,0.4,3,1.4,3.4,3.2c0.1,0.4,0.2,0.8,0.3,1.2
	c0.6,2.8,1.2,5.6,1.9,8.4c0.5,2.1,1.7,3.6,3.6,4.5c1.2,0.6,2.5,1.1,3.8,1.4c4.3,1.1,8.7,1.4,13.1,1.7c2.2,0.1,4.5,0,6.7-0.1
	c2.6-0.1,5.2-0.1,7.7-0.3c3.8-0.2,7.6-0.6,11.3-1.4c3.3-0.7,5.9-2.5,7.4-5.5c1.1-2.2,2.2-4.4,3.2-6.6c1.6-3.6,3.1-7.2,4.8-10.8
	c0.4-0.9,1-1.7,1.7-2.3c1.9-1.7,4.2-1.7,6.6-1.4c2,0.2,3.6,1.2,4.7,3c0.6,1.1,1.2,2.2,1.7,3.3c2,4.5,3.9,9,5.9,13.5
	c1.7,3.9,4.6,6.2,8.8,7c6.9,1.4,13.9,1.3,20.8,1.7c3.9,0.2,7.7-0.4,11.6-0.7c3-0.3,5.9-0.8,8.7-1.9c2.5-1,4.2-2.7,4.8-5.4
	c0.6-2.8,1.3-5.6,1.9-8.4c0.5-2.4,1.7-3.8,4.2-4.2c0.9-0.1,1.3-0.6,1.4-1.5C639.2,327.6,639.1,323.5,638.7,319.5z M551.4,325.4
	c-0.3,1.8-0.8,3.7-1.4,5.4c-1.4,3.7-2.9,7.3-4.3,10.9c-0.4,0.9-0.9,1.7-1.3,2.6c-1.3,2.6-3.5,4-6.3,4.6c-6,1.3-12.1,1.6-18.1,1.6
	c-5.2,0-10.3-0.3-15.4-1.3c-1.2-0.2-2.3-0.6-3.5-1.1c-2.2-0.8-3.5-2.4-3.9-4.7c-0.4-2.3-0.8-4.6-1-7c-0.2-2.8-0.2-5.6-0.2-8.4
	c0-1.7,0.1-3.5,0.3-5.2c0.1-1.6,1.1-2.6,2.6-3.2c2.5-0.9,5.1-1.4,7.7-1.6c5.8-0.6,11.6-1.1,17.4-1c5.2,0,10.4,0.1,15.6,1
	c2.8,0.5,5.5,1.4,8.2,2.2c0.5,0.1,0.9,0.4,1.3,0.7C550.9,322,551.7,323.5,551.4,325.4z M628.6,342.7c-0.5,3.3-2.5,5.2-5.6,6.1
	c-3.2,0.9-6.5,1.2-9.7,1.5c-8,0.6-16,0.3-23.9-0.9c-1.4-0.2-2.7-0.6-4-1.1c-1.8-0.6-3.2-1.8-4-3.4c-1.3-2.7-2.7-5.4-3.8-8.2
	c-1.2-2.9-2.2-6-3.2-9c-0.3-0.8-0.4-1.6-0.5-2.5c-0.2-2,0.6-3.5,2.4-4.4c2.6-1.3,5.4-2.1,8.3-2.7c5.5-1,11.2-1.1,18.1-1.2
	c5.8,0.1,12.1,0.2,20,1.6c1.5,0.3,2.9,0.8,4.3,1.2c1.2,0.4,1.9,1.2,2.1,2.5c0.2,1.8,0.3,3.6,0.4,5.3c0.1,0.9,0.1,1.9,0.1,2.8
	C629.6,334.7,629.2,338.7,628.6,342.7z"/>
</svg>
