<?xml version="1.0" encoding="UTF-8" standalone="no"?>
<svg width="42px" height="42px" viewBox="0 0 42 42" version="1.1" xmlns="http://www.w3.org/2000/svg" xmlns:xlink="http://www.w3.org/1999/xlink">
    <!-- Generator: Sketch 39.1 (31720) - http://www.bohemiancoding.com/sketch -->
    <title>Shape</title>
    <desc>Created with Sketch.</desc>
    <defs></defs>
    <g id="RX-Landing---v3" stroke="none" stroke-width="1" fill="none" fill-rule="evenodd">
        <g id="rx-desktop" transform="translate(-127.000000, -787.000000)" fill="#2E2E2E">
            <g id="help-snipe" transform="translate(127.000000, 754.000000)">
                <path d="M0,37.6666667 L0,70.3333333 C0,72.9 2.1,75 4.66666667,75 L37.3333333,75 C39.9,75 42,72.9 42,70.3333333 L42,37.6666667 C42,35.1 39.9,33 37.3333333,33 L4.66666667,33 C2.1,33 0,35.1 0,37.6666667 L0,37.6666667 Z M28,47 C28,50.9666667 24.9666667,54 21,54 C17.0333333,54 14,50.9666667 14,47 C14,43.0333333 17.0333333,40 21,40 C24.9666667,40 28,43.0333333 28,47 L28,47 Z M7,65.652439 C7,60.9573171 16.3333333,58.375 21,58.375 C25.6666667,58.375 35,60.9573171 35,65.652439 L35,68 L7,68 L7,65.652439 L7,65.652439 Z" id="Shape"></path>
            </g>
        </g>
    </g>
</svg>