<?xml version="1.0" encoding="utf-8"?>
<!-- Generator: Adobe Illustrator 19.1.0, SVG Export Plug-In . SVG Version: 6.00 Build 0)  -->
<svg version="1.1" id="Layer_1" xmlns="http://www.w3.org/2000/svg" xmlns:xlink="http://www.w3.org/1999/xlink" x="0px" y="0px"
	 viewBox="482.2 298.2 160.2 70.1" style="enable-background:new 482.2 298.2 160.2 70.1;" xml:space="preserve">
<style type="text/css">
	.st0{fill:none;stroke:#000000;stroke-width:0.5949;stroke-miterlimit:10;}
	.st1{fill:none;stroke:#FFFFFF;stroke-width:0.5;stroke-miterlimit:10;}
	.st2{fill:#C2C2C2;}
	.st3{fill:none;stroke:#FFFFFF;stroke-width:0.7065;stroke-miterlimit:10;}
	.st4{fill:none;stroke:#FFFFFF;stroke-width:0.5771;stroke-miterlimit:10;}
	.st5{fill:none;stroke:#C2C2C2;stroke-width:1.6233;stroke-miterlimit:10;}
</style>
<path class="st5" d="M603.2,313.2c7.1,0.1,15.9,0.5,24.5,2c1.8,0.3,3.5,0.9,5.3,1.5c1.4,0.5,2.4,1.5,2.6,3c0.3,2.2,0.4,4.3,0.5,6.5
	c0.1,1.2,0.1,2.3,0.1,3.5c0,5-0.4,9.9-1.2,14.8c-0.7,4.1-3,6.4-6.9,7.4c-3.9,1.1-7.9,1.5-11.9,1.8c-9.8,0.7-19.5,0.4-29.2-1.1
	c-1.7-0.3-3.3-0.8-4.9-1.3c-2.2-0.7-3.9-2.1-4.9-4.2c-1.6-3.3-3.2-6.6-4.6-10c-1.5-3.6-2.7-7.3-3.9-11c-0.3-1-0.5-2-0.6-3
	c-0.2-2.4,0.7-4.3,2.9-5.4c3.2-1.6,6.7-2.6,10.2-3.2C587.9,313.4,594.8,313.2,603.2,313.2z"/>
<path class="st5" d="M522.6,313.2c6.4,0,12.8,0.1,19.1,1.2c3.4,0.6,6.7,1.8,10.1,2.7c0.6,0.2,1.1,0.5,1.6,0.8
	c2.1,1.2,3.1,3.1,2.7,5.4c-0.4,2.2-1,4.5-1.7,6.6c-1.7,4.5-3.5,8.9-5.3,13.4c-0.4,1.1-1.1,2.1-1.6,3.2c-1.6,3.2-4.3,4.9-7.6,5.6
	c-7.3,1.6-14.7,2-22.2,2c-6.3,0-12.6-0.3-18.8-1.6c-1.4-0.3-2.9-0.8-4.2-1.3c-2.7-1-4.3-2.9-4.8-5.7c-0.5-2.8-1-5.7-1.2-8.5
	c-0.2-3.4-0.2-6.9-0.2-10.3c0-2.1,0.1-4.2,0.3-6.3c0.2-2,1.3-3.2,3.2-3.9c3.1-1.1,6.2-1.7,9.4-2
	C508.4,313.7,515.5,313.1,522.6,313.2z"/>
<line class="st5" x1="495.1" y1="334.6" x2="510.9" y2="318.8"/>
<line class="st5" x1="503.8" y1="335.7" x2="512.7" y2="326.8"/>
<line class="st5" x1="578.3" y1="335.2" x2="594.1" y2="319.5"/>
<line class="st5" x1="587" y1="336.3" x2="595.9" y2="327.4"/>
</svg>
