<?xml version="1.0" encoding="utf-8"?>
<!-- Generator: Adobe Illustrator 20.1.0, SVG Export Plug-In . SVG Version: 6.00 Build 0)  -->
<svg version="1.1" id="Layer_1" xmlns="http://www.w3.org/2000/svg" xmlns:xlink="http://www.w3.org/1999/xlink" x="0px" y="0px"
	 viewBox="0 0 112 57" style="enable-background:new 0 0 112 57;" xml:space="preserve">
<style type="text/css">
	.st0{fill:none;stroke:#9B9B9B;}
	.st1{fill:none;stroke:#9B9B9B;stroke-width:1.6233;}
</style>
<g id="RX-Landing---v3_1_">
	<g id="rx-desktop_1_" transform="translate(-1000.000000, -9180.000000)">
		<g id="process_1_" transform="translate(127.000000, 8884.000000)">
			<g id="steps_1_" transform="translate(120.000000, 291.000000)">
				<g id="_x33_" transform="translate(715.000000, 6.000000)">
					<g id="process-3" transform="translate(39.000000, 0.000000)">
						<path id="Shape_7_" class="st0" d="M100.5,14.6c1.3,0.2,2.4,0.6,3.7,1.1c1,0.4,1.7,1.1,1.8,2.1c0.2,1.5,0.3,3,0.3,4.6
							c0.1,0.8,0.1,1.6,0.1,2.5c0,3.5-0.3,7-0.8,10.4c-0.5,2.9-2.1,4.5-4.8,5.2c-2.7,0.8-5.5,1.1-8.3,1.3
							c-6.8,0.5-13.6,0.3-20.4-0.8c-1.2-0.2-2.3-0.6-3.4-0.9c-1.5-0.5-2.7-1.5-3.4-2.9c-1.1-2.3-2.2-4.6-3.2-7
							c-1-2.5-1.9-5.1-2.7-7.7c-0.2-0.7-0.3-1.4-0.4-2.1c-0.1-1.7,0.5-3,2-3.8c2.2-1.1,4.7-1.8,7.1-2.2c4.7-0.8,9.5-0.9,15.4-0.9
							C88.3,13.2,94.5,13.5,100.5,14.6z"/>
						<path id="Shape_6_" class="st0" d="M41,14c2.4,0.4,4.7,1.3,7.1,1.9c0.4,0.1,0.8,0.4,1.1,0.6c1.5,0.8,2.2,2.2,1.9,3.8
							c-0.3,1.5-0.7,3.2-1.2,4.6c-1.2,3.2-2.5,6.2-3.7,9.4c-0.3,0.8-0.8,1.5-1.1,2.2c-1.1,2.2-3,3.4-5.3,3.9
							c-5.1,1.1-10.3,1.4-15.6,1.4c-4.4,0-8.9-0.2-13.2-1.1c-1-0.2-2-0.6-3-0.9c-1.9-0.7-3-2-3.4-4c-0.4-2-0.7-4-0.8-6
							c-0.1-2.4-0.1-4.8-0.1-7.2c0-1.5,0.1-2.9,0.2-4.4C3.9,16.8,4.7,16,6,15.5c2.2-0.8,4.4-1.2,6.6-1.4c4.9-0.6,9.9-1,14.9-0.9
							C32,13.2,36.5,13.2,41,14z"/>
						<path id="Shape_2_" class="st1" d="M7.8,28.5L19,17.4"/>
						<path id="Shape_3_" class="st1" d="M14.1,29.2l6.3-6.3"/>
						<path id="Shape_4_" class="st1" d="M65.8,29.2L77,18.1"/>
						<path id="Shape_5_" class="st1" d="M72.1,29.2l6.3-6.3"/>
					</g>
				</g>
			</g>
		</g>
	</g>
</g>
</svg>
