<?xml version="1.0" encoding="utf-8"?>
<!-- Generator: Adobe Illustrator 20.1.0, SVG Export Plug-In . SVG Version: 6.00 Build 0)  -->
<svg version="1.1" id="Layer_1" xmlns="http://www.w3.org/2000/svg" xmlns:xlink="http://www.w3.org/1999/xlink" x="0px" y="0px"
	 viewBox="0 0 112 57" style="enable-background:new 0 0 112 57;" xml:space="preserve">
<style type="text/css">
	.st0{fill:#9B9B9B;}
</style>
<g id="RX-Landing---v3">
	<g id="rx-desktop" transform="translate(-664.000000, -9175.000000)">
		<g id="process" transform="translate(127.000000, 8884.000000)">
			<g id="steps" transform="translate(120.000000, 291.000000)">
				<g id="_x32_" transform="translate(358.000000, 0.000000)">
					<g id="process-2" transform="translate(59.000000, 0.000000)">
						<g id="Group-4">
							<path id="Shape" class="st0" d="M91.3,28c0-0.1,0-0.2-0.1-0.2c-0.4-0.8-9.3-17.2-35.9-17.2c-20.7,0-33.5,15.9-34.3,16.9l0,0
								c0,0,0,0,0,0.1C21,27.7,21,27.7,21,27.7c-0.1,0.2-0.1,0.3-0.1,0.3v0.3v0.3c0,0.2,0.1,0.2,0.1,0.3c0,0.1,0,0.2,0.1,0.2
								c0.4,0.7,9.3,17.1,35.9,17.1c20.7,0,33.5-15.9,34.3-16.9l0,0c0,0,0,0,0-0.1c0.1-0.1,0.1-0.2,0.1-0.2c0.1-0.2,0.2-0.2,0.2-0.3
								v-0.3v-0.3C91.4,28.2,91.3,28.1,91.3,28L91.3,28z M56,44.7c-9,0-16.3-7.4-16.3-16.3S47.1,12.1,56,12.1
								c9,0,16.3,7.4,16.3,16.3S65.1,44.7,56,44.7L56,44.7z"/>
							<path id="Shape_1_" class="st0" d="M56,15.1c-7.4,0-13.3,5.9-13.3,13.3S48.7,41.7,56,41.7c7.3,0,13.3-5.9,13.3-13.3
								S63.4,15.1,56,15.1L56,15.1z M61.6,30.4h-3.8v3.8h-3.4v-3.8h-3.8V27h3.8v-3.8h3.4V27h3.8L61.6,30.4L61.6,30.4z"/>
						</g>
					</g>
				</g>
			</g>
		</g>
	</g>
</g>
</svg>
