<?xml version="1.0" encoding="UTF-8" standalone="no"?>
<svg width="47px" height="33px" viewBox="0 0 47 33" version="1.1" xmlns="http://www.w3.org/2000/svg" xmlns:xlink="http://www.w3.org/1999/xlink">
    <!-- Generator: Sketch 39.1 (31720) - http://www.bohemiancoding.com/sketch -->
    <title>Shape</title>
    <desc>Created with Sketch.</desc>
    <defs></defs>
    <g id="RX-Landing---v3" stroke="none" stroke-width="1" fill="none" fill-rule="evenodd">
        <g id="rx-mobile" transform="translate(-164.000000, -1014.000000)" fill="#FFFFFF">
            <g id="trubridge" transform="translate(0.000000, 826.000000)">
                <g id="video" transform="translate(33.000000, 0.000000)">
                    <g transform="translate(0.000000, 120.000000)" id="Shape">
                        <path d="M173.036833,69.2336589 C171.654475,68.8329753 163.129931,68.4322917 154.605388,68.4322917 C146.080844,68.4322917 137.556301,68.8329753 136.173942,69.2336589 C132.487653,70.2353679 131.566081,77.2473308 131.566081,84.4596356 C131.566081,91.6719404 132.487653,98.6839034 136.173942,99.6856124 C137.556301,100.086296 146.080844,100.48698 154.605388,100.48698 C163.129931,100.48698 171.654475,100.086296 173.036833,99.6856124 C176.723122,98.6839034 177.644695,91.6719404 177.644695,84.4596356 C177.644695,77.2473308 176.723122,70.2353679 173.036833,69.2336589 L173.036833,69.2336589 Z M149.997526,93.4750166 L149.997526,75.4442546 L163.82111,84.4596356 L149.997526,93.4750166 L149.997526,93.4750166 Z"></path>
                    </g>
                </g>
            </g>
        </g>
    </g>
</svg>